<?xml version="1.0" encoding="utf-8"?>
<!-- Generator: Adobe Illustrator 23.0.1, SVG Export Plug-In . SVG Version: 6.00 Build 0)  -->
<svg version="1.1" id="Layer_1" xmlns="http://www.w3.org/2000/svg" xmlns:xlink="http://www.w3.org/1999/xlink" x="0px" y="0px"
	 viewBox="0 0 102.5 102.5" style="enable-background:new 0 0 102.5 102.5;" xml:space="preserve">
<style type="text/css">
	.st0{display:none;}
	.st1{display:inline;}
	.st2{fill:url(#SVGID_1_);}
	.st3{fill:url(#SVGID_2_);}
	.st4{fill:url(#SVGID_3_);}
	.st5{fill:url(#SVGID_4_);}
	.st6{fill:url(#SVGID_5_);}
	.st7{fill:url(#SVGID_6_);}
	.st8{fill:url(#SVGID_7_);}
	.st9{fill:url(#SVGID_8_);}
	.st10{fill:url(#SVGID_9_);}
</style>
<g class="st0">
	<g class="st1">
		
			<linearGradient id="SVGID_1_" gradientUnits="userSpaceOnUse" x1="-14.647" y1="76.375" x2="656.5567" y2="76.375" gradientTransform="matrix(1 0 0 -1 0 104)">
			<stop  offset="1.502404e-03" style="stop-color:#DA8CFF"/>
			<stop  offset="1" style="stop-color:#9A55FF"/>
		</linearGradient>
		<path class="st2" d="M100.2,24L53.1,0.4c-1.2-0.6-2.5-0.6-3.7,0L2.3,24C0.9,24.7,0,26.1,0,27.7s0.9,3,2.3,3.7l47.1,23.5
			c0.6,0.3,1.2,0.4,1.9,0.4c0.6,0,1.3-0.1,1.9-0.4l47.1-23.5c1.4-0.7,2.3-2.1,2.3-3.7C102.5,26.1,101.6,24.7,100.2,24z M51.2,46.6
			L13.4,27.7L51.2,8.8L89,27.7L51.2,46.6z"/>
	</g>
</g>
<g class="st0">
	<g class="st1">
		
			<linearGradient id="SVGID_2_" gradientUnits="userSpaceOnUse" x1="-14.647" y1="17.5053" x2="656.5567" y2="17.5053" gradientTransform="matrix(1 0 0 -1 0 104)">
			<stop  offset="1.502404e-03" style="stop-color:#DA8CFF"/>
			<stop  offset="1" style="stop-color:#9A55FF"/>
		</linearGradient>
		<path class="st3" d="M102,72.9c-1-2-3.5-2.9-5.6-1.9L51.2,93.7L6,71.1c-2-1-4.5-0.2-5.6,1.9c-1,2-0.2,4.5,1.9,5.6L49.4,102
			c0.6,0.3,1.2,0.4,1.9,0.4c0.6,0,1.3-0.1,1.9-0.4l47.1-23.5C102.2,77.4,103,75,102,72.9z"/>
	</g>
</g>
<g class="st0">
	<g class="st1">
		
			<linearGradient id="SVGID_3_" gradientUnits="userSpaceOnUse" x1="-14.647" y1="41.014" x2="656.5567" y2="41.014" gradientTransform="matrix(1 0 0 -1 0 104)">
			<stop  offset="1.502404e-03" style="stop-color:#DA8CFF"/>
			<stop  offset="1" style="stop-color:#9A55FF"/>
		</linearGradient>
		<path class="st4" d="M102,49.4c-1-2-3.5-2.9-5.6-1.9L51.2,70.1L6,47.5c-2-1-4.5-0.2-5.6,1.9c-1,2-0.2,4.5,1.9,5.6l47.1,23.5
			c0.6,0.3,1.2,0.4,1.9,0.4c0.6,0,1.3-0.1,1.9-0.4L100.3,55C102.2,53.9,103,51.4,102,49.4z"/>
	</g>
</g>
<g>
	<linearGradient id="SVGID_4_" gradientUnits="userSpaceOnUse" x1="0.1952" y1="62.6951" x2="17.3536" y2="62.6951">
		<stop  offset="1.502404e-03" style="stop-color:#DA8CFF"/>
		<stop  offset="1" style="stop-color:#9A55FF"/>
	</linearGradient>
	<path class="st5" d="M0.2,73.2h13.6c0.2-4.8,1.5-9.4,3.5-13.4L4.7,52.2C1.8,58.6,0.2,65.7,0.2,73.2L0.2,73.2z"/>
	<linearGradient id="SVGID_5_" gradientUnits="userSpaceOnUse" x1="56.7931" y1="36.3767" x2="85.809" y2="36.3767">
		<stop  offset="1.502404e-03" style="stop-color:#DA8CFF"/>
		<stop  offset="1" style="stop-color:#9A55FF"/>
	</linearGradient>
	<path class="st6" d="M59.4,22.6l-2.6,19.8c5.1,1.5,9.7,4.1,13.5,7.6l15.5-14.8C78.6,28.8,69.5,24.2,59.4,22.6z"/>
	<linearGradient id="SVGID_6_" gradientUnits="userSpaceOnUse" x1="7.5034" y1="43.1993" x2="31.2223" y2="43.1993">
		<stop  offset="1.502404e-03" style="stop-color:#DA8CFF"/>
		<stop  offset="1" style="stop-color:#9A55FF"/>
	</linearGradient>
	<path class="st7" d="M7.5,46.8l13,7.8c2.9-3.8,6.5-7,10.7-9.3l-9.8-13.6C15.8,35.8,11.1,40.9,7.5,46.8L7.5,46.8z"/>
	<linearGradient id="SVGID_7_" gradientUnits="userSpaceOnUse" x1="74.3633" y1="56.4069" x2="102.6" y2="56.4069">
		<stop  offset="1.502404e-03" style="stop-color:#DA8CFF"/>
		<stop  offset="1" style="stop-color:#9A55FF"/>
	</linearGradient>
	<path class="st8" d="M90,39.6l-15.6,15c4,5.2,6.4,11.7,6.8,18.7h21.5C102.6,60.3,97.8,48.6,90,39.6L90,39.6z"/>
	<linearGradient id="SVGID_8_" gradientUnits="userSpaceOnUse" x1="26.4711" y1="32.4489" x2="53.4637" y2="32.4489">
		<stop  offset="1.502404e-03" style="stop-color:#DA8CFF"/>
		<stop  offset="1" style="stop-color:#9A55FF"/>
	</linearGradient>
	<path class="st9" d="M50.9,41.3l2.6-19.3c-0.7,0-1.4,0-2.1,0c-9,0-17.5,2.4-24.9,6.5l10.4,14.4c3.3-1.1,6.9-1.7,10.6-1.7
		C48.6,41.2,49.8,41.2,50.9,41.3L50.9,41.3z"/>
	<linearGradient id="SVGID_9_" gradientUnits="userSpaceOnUse" x1="42.1934" y1="61.5565" x2="60.6019" y2="61.5565">
		<stop  offset="1.502404e-03" style="stop-color:#DA8CFF"/>
		<stop  offset="1" style="stop-color:#9A55FF"/>
	</linearGradient>
	<path class="st10" d="M42.2,71.3c0,5.1,4.1,9.2,9.2,9.2s9.2-4.1,9.2-9.2c0-5.1-9.2-28.6-9.2-28.6S42.2,66.2,42.2,71.3z"/>
</g>
</svg>
