<?xml version="1.0" encoding="utf-8"?>
<!-- Generator: Adobe Illustrator 23.0.1, SVG Export Plug-In . SVG Version: 6.00 Build 0)  -->
<svg version="1.1" id="Layer_1" xmlns="http://www.w3.org/2000/svg" xmlns:xlink="http://www.w3.org/1999/xlink" x="0px" y="0px"
	 viewBox="0 0 636.1 140.4" style="enable-background:new 0 0 636.1 140.4;" xml:space="preserve">
<style type="text/css">
	.st0{display:none;fill:url(#SVGID_1_);}
	.st1{display:none;fill:url(#SVGID_2_);}
	.st2{display:none;fill:url(#SVGID_3_);}
	.st3{display:none;fill:url(#SVGID_4_);}
	.st4{display:none;fill:url(#SVGID_5_);}
	.st5{display:none;fill:url(#SVGID_6_);}
	.st6{display:none;}
	.st7{display:inline;}
	.st8{fill:url(#SVGID_7_);}
	.st9{fill:url(#SVGID_8_);}
	.st10{fill:url(#SVGID_9_);}
	.st11{fill:url(#SVGID_10_);}
	.st12{fill:url(#SVGID_11_);}
	.st13{fill:url(#SVGID_12_);}
	.st14{fill:url(#SVGID_13_);}
	.st15{fill:url(#SVGID_14_);}
	.st16{fill:url(#SVGID_15_);}
	.st17{fill:url(#SVGID_16_);}
	.st18{fill:url(#SVGID_17_);}
	.st19{fill:url(#SVGID_18_);}
	.st20{fill:url(#SVGID_19_);}
	.st21{fill:url(#SVGID_20_);}
	.st22{fill:url(#SVGID_21_);}
</style>
<linearGradient id="SVGID_1_" gradientUnits="userSpaceOnUse" x1="-14.647" y1="87.7" x2="656.5567" y2="87.7" gradientTransform="matrix(1 0 0 -1 0 142)">
	<stop  offset="1.502404e-03" style="stop-color:#DA8CFF"/>
	<stop  offset="1" style="stop-color:#9A55FF"/>
</linearGradient>
<path class="st0" d="M202.9,65.2v38.1H179v-98h38.7c7.6,0,14.2,1.4,19.6,4.2c5.4,2.8,9.5,6.5,12.3,11c2.7,4.6,4.1,9.5,4.1,14.8
	c0,4.5-1.1,9-3.3,13.5s-6,8.4-11.4,11.6c-5.4,3.2-12.5,4.8-21.4,4.8H202.9z M226.3,43.8c2.1-2.1,3.1-5,3.1-8.5
	c0-3.4-1.1-6.3-3.2-8.5c-2.1-2.2-5-3.3-8.5-3.3h-14.8V47h14.8C221.4,47,224.2,46,226.3,43.8z"/>
<linearGradient id="SVGID_2_" gradientUnits="userSpaceOnUse" x1="-14.647" y1="77.25" x2="656.5567" y2="77.25" gradientTransform="matrix(1 0 0 -1 0 142)">
	<stop  offset="1.502404e-03" style="stop-color:#DA8CFF"/>
	<stop  offset="1" style="stop-color:#9A55FF"/>
</linearGradient>
<path class="st1" d="M340.9,25.4v77.9H317V91.8c-2.3,3.8-5.5,6.8-9.6,9c-4,2.2-8.7,3.3-14,3.3c-5.9,0-11-1.3-15.6-4
	c-4.5-2.7-8-6.5-10.6-11.5s-3.8-10.9-3.8-17.7V25.4h23.7v42.3c0,5,1.3,8.9,4,11.7c2.7,2.7,6.3,4.1,11,4.1s8.3-1.4,11-4.1
	s4-6.6,4-11.7V25.4H340.9z"/>
<linearGradient id="SVGID_3_" gradientUnits="userSpaceOnUse" x1="-14.647" y1="78.05" x2="656.5567" y2="78.05" gradientTransform="matrix(1 0 0 -1 0 142)">
	<stop  offset="1.502404e-03" style="stop-color:#DA8CFF"/>
	<stop  offset="1" style="stop-color:#9A55FF"/>
</linearGradient>
<path class="st2" d="M395.3,28.7c3.8-2.7,8-4.1,12.7-4.1v24.3h-5.9c-5.5,0-9.6,1.3-12.4,3.9c-2.7,2.6-4.1,7.2-4.1,13.7v36.8h-23.9
	V25.4h23.9v14.5C388.3,35.2,391.5,31.4,395.3,28.7z"/>
<linearGradient id="SVGID_4_" gradientUnits="userSpaceOnUse" x1="-14.647" y1="59.4021" x2="656.5567" y2="59.4021" gradientTransform="matrix(1 0 0 -1 0 142)">
	<stop  offset="1.502404e-03" style="stop-color:#DA8CFF"/>
	<stop  offset="1" style="stop-color:#9A55FF"/>
</linearGradient>
<path class="st3" d="M485.5,29.7c5.4,3.4,9.7,8.1,12.9,14.2c3.2,6,4.7,12.9,4.7,20.7c0,7.7-1.6,14.6-4.7,20.7
	c-3.2,6-7.5,10.7-12.9,14.1s-11.4,5-17.8,5c-9.7,0-17.3-4.1-22.9-12.3v48.4H421v-115h23.9v10.2c5.3-7.3,12.9-11,22.9-11
	C474.2,24.6,480.1,26.3,485.5,29.7z M453.7,47.4c-2.6,1.4-4.7,3.6-6.4,6.4c-1.6,2.8-2.4,6.4-2.4,10.5c0,4.2,0.8,7.7,2.4,10.6
	s3.8,5,6.4,6.5c2.7,1.4,5.4,2.2,8.2,2.2c2.9,0,5.6-0.7,8.2-2.2c2.6-1.4,4.7-3.6,6.3-6.4c1.6-2.8,2.4-6.4,2.4-10.5
	c0-4.2-0.8-7.7-2.4-10.6c-1.6-2.9-3.8-5-6.4-6.5c-2.7-1.4-5.4-2.2-8.2-2.2S456.3,45.9,453.7,47.4z"/>
<linearGradient id="SVGID_5_" gradientUnits="userSpaceOnUse" x1="-14.647" y1="90.35" x2="656.5567" y2="90.35" gradientTransform="matrix(1 0 0 -1 0 142)">
	<stop  offset="1.502404e-03" style="stop-color:#DA8CFF"/>
	<stop  offset="1" style="stop-color:#9A55FF"/>
</linearGradient>
<path class="st4" d="M542.3,0v103.3h-23.9V0H542.3z"/>
<linearGradient id="SVGID_6_" gradientUnits="userSpaceOnUse" x1="-14.647" y1="77.5" x2="656.5567" y2="77.5" gradientTransform="matrix(1 0 0 -1 0 142)">
	<stop  offset="1.502404e-03" style="stop-color:#DA8CFF"/>
	<stop  offset="1" style="stop-color:#9A55FF"/>
</linearGradient>
<path class="st5" d="M635.5,72.2h-53.6c0.5,3.4,2,6.3,4.6,8.4c2.6,2.2,5.9,3.3,9.8,3.3c3,0,5.2-0.4,6.7-1.3s3.1-2.3,4.7-4.4h25.8
	c-2.2,7.8-6.7,14.1-13.4,18.9s-14.7,7.2-23.9,7.2c-7.4,0-14.1-1.6-20-4.9s-10.5-7.9-13.8-14s-5-13.1-5-21.1s1.7-15,5-21
	s7.9-10.6,13.7-13.8c5.9-3.2,12.5-4.8,20-4.8s14.3,1.6,20.4,4.7c6,3.1,10.8,7.7,14.3,13.7s5.2,13.3,5.2,21.6
	C636.1,67.3,635.9,69.8,635.5,72.2z M611.2,57.2c-0.4-3.6-2-6.6-4.7-8.9c-2.8-2.3-6.2-3.4-10.3-3.4c-3.5,0-6.6,1.1-9.2,3.4
	c-2.6,2.3-4.2,5.2-4.9,8.9C582.1,57.2,611.2,57.2,611.2,57.2z"/>
<g class="st6">
	<g class="st7">
		
			<linearGradient id="SVGID_7_" gradientUnits="userSpaceOnUse" x1="-14.647" y1="108.275" x2="656.5567" y2="108.275" gradientTransform="matrix(1 0 0 -1 0 142)">
			<stop  offset="1.502404e-03" style="stop-color:#DA8CFF"/>
			<stop  offset="1" style="stop-color:#9A55FF"/>
		</linearGradient>
		<path class="st8" d="M100.2,30L53.1,6.5c-1.2-0.6-2.5-0.6-3.7,0L2.3,30C0.9,30.7,0,32.2,0,33.7c0,1.6,0.9,3,2.3,3.7L49.4,61
			c0.6,0.3,1.2,0.4,1.9,0.4c0.6,0,1.3-0.1,1.9-0.4l47.1-23.5c1.4-0.7,2.3-2.1,2.3-3.7C102.5,32.2,101.6,30.7,100.2,30z M51.2,52.7
			l-37.8-19l37.8-18.9L89,33.7L51.2,52.7z"/>
	</g>
</g>
<g class="st6">
	<g class="st7">
		
			<linearGradient id="SVGID_8_" gradientUnits="userSpaceOnUse" x1="-14.647" y1="49.414" x2="656.5567" y2="49.414" gradientTransform="matrix(1 0 0 -1 0 142)">
			<stop  offset="1.502404e-03" style="stop-color:#DA8CFF"/>
			<stop  offset="1" style="stop-color:#9A55FF"/>
		</linearGradient>
		<path class="st9" d="M102,79c-1-2-3.5-2.9-5.6-1.9L51.2,99.8L6,77.1c-2-1-4.5-0.2-5.6,1.9c-1,2-0.2,4.5,1.9,5.6l47.1,23.5
			c0.6,0.3,1.2,0.4,1.9,0.4c0.6,0,1.3-0.1,1.9-0.4l47.1-23.5C102.2,83.5,103,81,102,79z"/>
	</g>
</g>
<g class="st6">
	<g class="st7">
		
			<linearGradient id="SVGID_9_" gradientUnits="userSpaceOnUse" x1="-14.647" y1="72.9553" x2="656.5567" y2="72.9553" gradientTransform="matrix(1 0 0 -1 0 142)">
			<stop  offset="1.502404e-03" style="stop-color:#DA8CFF"/>
			<stop  offset="1" style="stop-color:#9A55FF"/>
		</linearGradient>
		<path class="st10" d="M102,55.4c-1-2-3.5-2.9-5.6-1.9L51.2,76.2L6,53.6c-2-1-4.5-0.2-5.6,1.9c-1,2-0.2,4.5,1.9,5.6l47.1,23.5
			c0.6,0.3,1.2,0.4,1.9,0.4c0.6,0,1.3-0.1,1.9-0.4l47-23.6C102.2,60,103,57.5,102,55.4z"/>
	</g>
</g>
<g>
	<linearGradient id="SVGID_10_" gradientUnits="userSpaceOnUse" x1="155.6079" y1="59.7" x2="227.6079" y2="59.7">
		<stop  offset="1.502404e-03" style="stop-color:#DA8CFF"/>
		<stop  offset="1" style="stop-color:#9A55FF"/>
	</linearGradient>
	<path class="st11" d="M191,108.2c-6,0-12.1-1.1-18.4-3.2c-6.3-2.2-12-5.5-17.1-10.2l14.1-17c3.4,2.7,7,4.9,10.9,6.6
		c3.9,1.7,7.6,2.5,11,2.5c3.7,0,6.5-0.6,8.1-1.7c1.7-1.2,2.5-2.8,2.5-4.9c0-1.2-0.3-2.1-0.9-2.9c-0.6-0.8-1.4-1.5-2.5-2.2
		c-1.1-0.7-2.4-1.3-4-1.9c-1.5-0.6-3.3-1.3-5.3-2.1l-11.7-4.9c-2.5-1-4.9-2.2-7.2-3.8s-4.3-3.5-6-5.6c-1.7-2.2-3.1-4.6-4.1-7.4
		c-1-2.8-1.5-5.9-1.5-9.2c0-4,0.9-7.8,2.6-11.3c1.7-3.5,4.1-6.6,7.2-9.2c3.1-2.6,6.7-4.7,11-6.3c4.3-1.5,9-2.3,14-2.3
		c5.4,0,10.8,1,16.3,3c5.5,2,10.4,5.2,14.8,9.5l-12.4,15.6c-3.2-2.2-6.2-3.9-9.1-5c-2.9-1.2-6.1-1.7-9.6-1.7c-3.1,0-5.5,0.5-7.2,1.6
		c-1.7,1.1-2.6,2.6-2.6,4.8c0,2.2,1.2,3.9,3.7,5.1c2.4,1.2,5.8,2.6,10.2,4.2l11.4,4.5c5.9,2.3,10.4,5.5,13.5,9.6
		c3.2,4.1,4.8,9.5,4.8,16c0,3.9-0.8,7.7-2.4,11.4c-1.6,3.6-4,6.8-7.1,9.6c-3.1,2.7-6.9,4.9-11.4,6.6
		C202.1,107.4,196.9,108.2,191,108.2z"/>
	<linearGradient id="SVGID_11_" gradientUnits="userSpaceOnUse" x1="240.5674" y1="82.3081" x2="310.5513" y2="82.3081">
		<stop  offset="1.502404e-03" style="stop-color:#DA8CFF"/>
		<stop  offset="1" style="stop-color:#9A55FF"/>
	</linearGradient>
	<path class="st12" d="M240.6,131.8V34.5h20.2l1.7,6.6h0.6c2.7-2.5,5.7-4.5,9.1-6c3.4-1.5,6.9-2.3,10.5-2.3c4.2,0,8.1,0.9,11.5,2.6
		s6.4,4.2,8.9,7.3c2.4,3.2,4.3,7,5.6,11.5c1.3,4.5,1.9,9.6,1.9,15.1c0,6.2-0.8,11.8-2.5,16.6c-1.7,4.8-3.9,8.9-6.7,12.2
		c-2.8,3.3-6,5.8-9.6,7.6c-3.6,1.7-7.3,2.6-11.2,2.6c-6,0-11.3-2.4-16.1-7.2l0.9,10.9v19.9H240.6z M274.6,88.1c2.9,0,5.4-1.3,7.5-4
		c2.1-2.7,3.2-7.5,3.2-14.4c0-6-0.8-10.2-2.5-12.8c-1.7-2.6-4.2-3.9-7.6-3.9c-1.9,0-3.6,0.4-5.1,1.2c-1.5,0.8-3,2.1-4.7,4v26.5
		c1.4,1.3,2.9,2.3,4.5,2.7C271.3,87.8,272.9,88.1,274.6,88.1z"/>
	<linearGradient id="SVGID_12_" gradientUnits="userSpaceOnUse" x1="320.3413" y1="70.5" x2="386.293" y2="70.5">
		<stop  offset="1.502404e-03" style="stop-color:#DA8CFF"/>
		<stop  offset="1" style="stop-color:#9A55FF"/>
	</linearGradient>
	<path class="st13" d="M357.5,108.2c-5.3,0-10.2-0.8-14.7-2.5c-4.5-1.7-8.4-4.1-11.7-7.3c-3.3-3.2-5.9-7.2-7.8-11.9
		c-1.9-4.7-2.9-10-2.9-16c0-5.9,1-11.1,3-15.8c2-4.7,4.6-8.6,7.8-11.9c3.2-3.3,6.9-5.8,11-7.5c4.1-1.7,8.4-2.6,12.8-2.6
		c5.3,0,9.9,0.9,13.8,2.7c3.9,1.8,7.2,4.3,9.8,7.5s4.5,6.9,5.8,11.1c1.3,4.2,1.9,8.7,1.9,13.5c0,2.2-0.1,4.3-0.4,6.2
		c-0.2,1.9-0.5,3.3-0.6,4.2h-41c1.2,4.3,3.2,7.3,6.2,9c3,1.7,6.5,2.5,10.5,2.5c2.5,0,4.9-0.4,7.3-1.1c2.4-0.7,4.8-1.8,7.4-3.2
		l8.1,14.7c-3.9,2.8-8.3,4.9-13,6.3S361.5,108.2,357.5,108.2z M344,61.9h21.3c0-2.8-0.7-5.2-2.1-7.3c-1.4-2.1-4-3.1-7.7-3.1
		c-2.8,0-5.2,0.8-7.3,2.4C346.1,55.6,344.7,58.2,344,61.9z"/>
	<linearGradient id="SVGID_13_" gradientUnits="userSpaceOnUse" x1="396.084" y1="70.5" x2="462.0352" y2="70.5">
		<stop  offset="1.502404e-03" style="stop-color:#DA8CFF"/>
		<stop  offset="1" style="stop-color:#9A55FF"/>
	</linearGradient>
	<path class="st14" d="M433.2,108.2c-5.3,0-10.2-0.8-14.7-2.5c-4.5-1.7-8.4-4.1-11.7-7.3c-3.3-3.2-5.9-7.2-7.8-11.9
		c-1.9-4.7-2.9-10-2.9-16c0-5.9,1-11.1,3-15.8c2-4.7,4.6-8.6,7.8-11.9c3.2-3.3,6.9-5.8,11-7.5c4.1-1.7,8.4-2.6,12.8-2.6
		c5.3,0,9.9,0.9,13.8,2.7c3.9,1.8,7.2,4.3,9.8,7.5s4.5,6.9,5.8,11.1c1.3,4.2,1.9,8.7,1.9,13.5c0,2.2-0.1,4.3-0.4,6.2
		c-0.2,1.9-0.5,3.3-0.6,4.2h-41c1.2,4.3,3.2,7.3,6.2,9c3,1.7,6.5,2.5,10.5,2.5c2.5,0,4.9-0.4,7.3-1.1c2.4-0.7,4.8-1.8,7.4-3.2
		l8.1,14.7c-3.9,2.8-8.3,4.9-13,6.3C441.7,107.5,437.3,108.2,433.2,108.2z M419.7,61.9H441c0-2.8-0.7-5.2-2.1-7.3
		c-1.4-2.1-4-3.1-7.7-3.1c-2.8,0-5.2,0.8-7.3,2.4C421.9,55.6,420.5,58.2,419.7,61.9z"/>
	<linearGradient id="SVGID_14_" gradientUnits="userSpaceOnUse" x1="472.4004" y1="57.252" x2="542.3848" y2="57.252">
		<stop  offset="1.502404e-03" style="stop-color:#DA8CFF"/>
		<stop  offset="1" style="stop-color:#9A55FF"/>
	</linearGradient>
	<path class="st15" d="M501.8,108.2c-4.5,0-8.6-0.9-12.2-2.6c-3.6-1.7-6.7-4.2-9.2-7.5c-2.5-3.3-4.5-7.2-5.9-11.9
		c-1.4-4.7-2.1-9.9-2.1-15.8c0-5.9,0.8-11.1,2.5-15.8c1.7-4.7,3.9-8.7,6.6-11.9c2.7-3.2,5.9-5.7,9.4-7.4c3.6-1.7,7.2-2.6,10.8-2.6
		c3.9,0,7.2,0.6,9.6,1.9c2.5,1.3,4.8,3,7.1,5.3l-0.9-10.4V6.3h24.8v100.2h-20.2l-1.7-6.6h-0.6c-2.5,2.5-5.4,4.5-8.6,6
		C508.1,107.5,504.9,108.2,501.8,108.2z M508.4,88.1c1.9,0,3.6-0.4,5-1.1c1.4-0.7,2.8-2.1,4.2-4.1V56.4c-1.4-1.3-3-2.3-4.8-2.7
		c-1.7-0.5-3.4-0.7-5-0.7c-2.6,0-4.9,1.3-7,3.9c-2.1,2.6-3.1,7.1-3.1,13.4c0,6.5,0.9,11.1,2.8,13.8C502.4,86.7,505,88.1,508.4,88.1z
		"/>
	<linearGradient id="SVGID_15_" gradientUnits="userSpaceOnUse" x1="552.4629" y1="84.0364" x2="627.0557" y2="84.0364">
		<stop  offset="1.502404e-03" style="stop-color:#DA8CFF"/>
		<stop  offset="1" style="stop-color:#9A55FF"/>
	</linearGradient>
	<path class="st16" d="M569.7,133.6c-2.5,0-4.5-0.1-6.1-0.4c-1.6-0.2-3.2-0.6-4.8-1.1l4.3-18.7c0.7,0.2,1.4,0.4,2.2,0.6
		c0.8,0.2,1.6,0.3,2.4,0.3c3.4,0,5.9-0.6,7.6-1.9c1.7-1.3,2.9-3,3.7-5.3l0.9-3.2l-27.4-69.4h24.8l8.6,27.6c1.1,3.4,2,6.7,2.7,10
		c0.8,3.3,1.6,6.8,2.4,10.4h0.6c0.8-3.5,1.5-6.9,2.2-10.2c0.7-3.4,1.5-6.8,2.4-10.2l7.2-27.6h23.6l-24.2,70.8
		c-1.9,4.9-3.9,9.1-5.8,12.7c-2,3.6-4.2,6.5-6.8,8.8c-2.6,2.3-5.5,4-8.9,5.1C578,133,574.2,133.6,569.7,133.6z"/>
</g>
<g>
	<linearGradient id="SVGID_16_" gradientUnits="userSpaceOnUse" x1="10" y1="74.2001" x2="30.91" y2="74.2001">
		<stop  offset="1.502404e-03" style="stop-color:#DA8CFF"/>
		<stop  offset="1" style="stop-color:#9A55FF"/>
	</linearGradient>
	<path class="st17" d="M10,87h16.6c0.3-5.9,1.8-11.4,4.3-16.4l-15.4-9.3C12,69.2,10,77.9,10,87L10,87z"/>
	<linearGradient id="SVGID_17_" gradientUnits="userSpaceOnUse" x1="78.9728" y1="42.1272" x2="114.333" y2="42.1272">
		<stop  offset="1.502404e-03" style="stop-color:#DA8CFF"/>
		<stop  offset="1" style="stop-color:#9A55FF"/>
	</linearGradient>
	<path class="st18" d="M82.2,25.4L79,49.6c6.2,1.8,11.9,5,16.5,9.3l18.9-18C105.5,32.8,94.5,27.3,82.2,25.4z"/>
	<linearGradient id="SVGID_18_" gradientUnits="userSpaceOnUse" x1="18.906" y1="50.4416" x2="47.811" y2="50.4416">
		<stop  offset="1.502404e-03" style="stop-color:#DA8CFF"/>
		<stop  offset="1" style="stop-color:#9A55FF"/>
	</linearGradient>
	<path class="st19" d="M18.9,54.9l15.8,9.5c3.5-4.7,7.9-8.5,13.1-11.4l-12-16.6C29,41.4,23.3,47.7,18.9,54.9L18.9,54.9z"/>
	<linearGradient id="SVGID_19_" gradientUnits="userSpaceOnUse" x1="100.3847" y1="66.537" x2="134.7952" y2="66.537">
		<stop  offset="1.502404e-03" style="stop-color:#DA8CFF"/>
		<stop  offset="1" style="stop-color:#9A55FF"/>
	</linearGradient>
	<path class="st20" d="M119.4,46l-19.1,18.2c4.8,6.4,7.8,14.2,8.2,22.7h26.2C134.8,71.3,129,57,119.4,46L119.4,46z"/>
	<linearGradient id="SVGID_20_" gradientUnits="userSpaceOnUse" x1="42.0209" y1="37.3406" x2="74.9155" y2="37.3406">
		<stop  offset="1.502404e-03" style="stop-color:#DA8CFF"/>
		<stop  offset="1" style="stop-color:#9A55FF"/>
	</linearGradient>
	<path class="st21" d="M71.8,48.2l3.1-23.5c-0.8,0-1.7-0.1-2.5-0.1c-11,0-21.4,2.9-30.4,7.9l12.6,17.5c4.1-1.4,8.4-2.1,13-2.1
		C69,48,70.4,48,71.8,48.2L71.8,48.2z"/>
	<linearGradient id="SVGID_21_" gradientUnits="userSpaceOnUse" x1="61.1809" y1="72.8126" x2="83.6143" y2="72.8126">
		<stop  offset="1.502404e-03" style="stop-color:#DA8CFF"/>
		<stop  offset="1" style="stop-color:#9A55FF"/>
	</linearGradient>
	<path class="st22" d="M61.2,84.6c0,6.2,5,11.2,11.2,11.2s11.2-5,11.2-11.2S72.4,49.8,72.4,49.8S61.2,78.4,61.2,84.6z"/>
</g>
</svg>
